<?xml version="1.0" encoding="UTF-8"?><svg xmlns="http://www.w3.org/2000/svg" viewBox="0 0 284.79 489.21"><g id="a"/><g id="b"><g id="c"><path d="M280.49,239.36c-3.09-.52-6.18-1.04-9.27-1.56,.03-.38,.06-.75,.1-1.13h13.48c0-.39-.02-.78-.03-1.17-5.14-.66-10.32-1.11-15.42-2.03-31.15-5.63-53.61-22.94-68.03-50.95-1.17-2.28-2.13-4.71-3.59-6.79-2.93-4.17-2.77-9.18-4.25-13.67-1.99-6.05-6.27-11.32-8.57-17.31-1.69-4.41-2.11-9.41-2.5-14.19-.77-9.52,2.97-18,6.47-26.61,2.79-6.84,4.65-14.06,6.84-21.14,.91-2.93,1.6-5.92,2.39-8.88,4.47-16.71,3.92-32.09-7.64-46.71-11.34-14.35-26.05-22.3-43.02-26.03-12.62-2.77-24.9-1.03-35.31,8.85-4.8,4.55-7.98,9.57-10.96,15.14-1.87,3.51-4.31,6.72-6.56,10.02H43.34C19.4,35.2,0,54.6,0,78.54V445.88c0,23.93,19.4,43.34,43.34,43.34h60.53c23.93,0,43.34-19.4,43.34-43.34V78.54c0-21.76-16.05-39.78-36.95-42.87,.92-4.89,1.51-9.91,6.12-13.92,7.31-6.36,15.52-9.2,24.46-10.48,5.62-.8,11.48,.26,17.21,.08,8.3-.26,12.59,5.56,17.45,10.74,10.73,11.42,15.17,25.71,16.36,40.6,.62,7.75-2.01,16.09-4.6,23.68-3.72,10.92-8.92,21.32-13.08,32.1-.92,2.38-.34,5.44-.11,8.16,.8,9.52-2.24,18.4-4.27,27.46-.21,.96-.12,2.32,.42,3.07,8.03,11.2,9.89,24.11,9.55,37.28-.43,16.58,5.06,31.43,12.38,45.66,5.6,10.87,12.23,21.25,18.95,31.49,3.43,5.22,8.08,9.65,13.28,13.68-8.67-11.99-17.33-23.97-26-35.96,.54-.39,1.08-.79,1.61-1.18,9.1,11.67,18.21,23.34,27.66,35.46,4.83-3.31,9.19-6.73,13.99-9.34,1.74-.95,4.59-.2,6.84,.25,1.28,.25,2.37,1.46,4.37,1.46-2.45-2.78-4.91-5.55-7.96-9.01,2.68-.42,4.21-.65,6.04-.94,.06-1.23,.13-2.51,.14-2.64,4.3-.49,7.98-.9,12.74-1.44-1.23-2.12-2.1-3.64-3.32-5.75,3.84,1.02,7.41,1.97,11.04,2.93q1.17-2.29-5.57-6.84c2.86-1.49,5.07-2.81,7.41-3.82,3.96-1.72,2.99-3.8,.59-5.61,2.39-.68,4.64-1.31,6.89-1.95-.12-.51-.25-1.02-.37-1.53Z"/></g></g></svg>