<?xml version="1.0" encoding="UTF-8"?><svg xmlns="http://www.w3.org/2000/svg" viewBox="0 0 334.95 334.95"><defs><style>.d{fill:#ff2fae;}</style></defs><g id="a"/><g id="b"><g id="c"><g><path class="d" d="M34.65,59.47c0,11.44,.02,22,0,32.56-.02,9.11-6.35,16.59-14.85,17.62-9.06,1.09-17.03-4.27-19.31-13.11-.38-1.49-.45-3.08-.46-4.63C0,65.45,0,38.98,.01,12.52,.02,4.65,4.66,.02,12.55,.01,39.02,0,65.49,0,91.95,.02c10.19,0,17.76,7.41,17.77,17.29,0,9.89-7.57,17.32-17.72,17.34-10.56,.02-21.11,0-32.48,0,1.41,1.51,2.3,2.54,3.26,3.5,26.45,26.46,52.89,52.93,79.37,79.36,4.61,4.6,7.29,9.81,6.07,16.48-1.25,6.88-5.29,11.55-11.87,13.7-6.64,2.18-12.64,.5-17.58-4.34-8.42-8.25-16.7-16.64-25.04-24.98-18.71-18.71-37.42-37.43-56.14-56.14-.75-.75-1.55-1.44-2.96-2.74Z"/><path class="d" d="M300.3,59.5c-1.59,1.49-2.62,2.41-3.59,3.39-26.46,26.45-52.93,52.89-79.36,79.38-4.41,4.42-9.48,7.07-15.81,6.1-6.99-1.07-11.92-5.02-14.19-11.78-2.39-7.11-.36-13.22,4.84-18.42,26.62-26.63,53.25-53.25,79.87-79.88,.98-.98,1.92-2.01,3.46-3.63-1.93,0-3.08,0-4.22,0-9.62,0-19.25,.04-28.87-.01-9.76-.05-17.24-7.7-17.19-17.5C225.27,7.61,232.81,.04,242.43,.02c26.83-.04,53.65-.03,80.48,0,7.19,0,12,4.78,12.01,11.94,.02,26.83,.03,53.65,0,80.48-.01,9.81-7.63,17.3-17.41,17.28-9.55-.02-17.15-7.55-17.2-17.13-.05-9.62-.01-19.25-.01-28.87,0-1.15,0-2.3,0-4.22Z"/><path class="d" d="M35.93,275.56c.8-1.18,1.44-2.53,2.43-3.52,26.24-26.31,52.51-52.59,78.8-78.86,7.15-7.15,16.07-8.32,23.44-3.18,8.15,5.68,9.92,16.92,3.85,24.8-1.09,1.42-2.39,2.7-3.66,3.98-25.93,25.95-51.86,51.89-77.83,77.8-1,1-2.31,1.68-3.48,2.52l.67,1.01c1.01,.07,2.02,.2,3.02,.2,9.74,.02,19.48-.02,29.22,.02,9.82,.04,17.32,7.6,17.31,17.37-.01,9.71-7.57,17.24-17.44,17.25-26.7,.03-53.4,.02-80.1,0-7.41,0-12.16-4.75-12.17-12.15-.02-26.7-.02-53.4,0-80.1,0-9.89,7.51-17.44,17.22-17.46,9.94-.02,17.38,7.5,17.4,17.64,.03,10.57,0,21.14,0,31.71l1.28,.98Z"/><path class="d" d="M275.5,300.3c-1.52-1.61-2.45-2.64-3.43-3.62-26.27-26.28-52.53-52.56-78.83-78.81-5.2-5.2-7.31-11.24-5.13-18.36,3.56-11.59,17.56-15.95,27.18-8.56,1.23,.95,2.34,2.07,3.44,3.17,25.94,25.93,51.88,51.86,77.79,77.81,1.01,1.01,1.83,2.21,2.74,3.31l.8-.44c.07-1,.21-2,.21-3,.02-9.74-.02-19.48,.02-29.22,.04-9.84,7.57-17.36,17.32-17.36,9.75,0,17.29,7.51,17.3,17.37,.03,26.69,.02,53.39,0,80.08,0,7.62-4.71,12.24-12.43,12.25-26.57,.01-53.15,.02-79.72,0-10.08,0-17.59-7.55-17.55-17.49,.04-9.68,7.62-17.1,17.55-17.13,9.5-.03,19,0,28.5,0,1.15,0,2.29,0,4.22,0Z"/></g></g></g></svg>