<?xml version="1.0" encoding="UTF-8"?><svg xmlns="http://www.w3.org/2000/svg" viewBox="0 0 299.76 299.59"><defs><style>.d{fill:#ff2fae;}</style></defs><g id="a"/><g id="b"><g id="c"><g><path class="d" d="M187.6,207.6c-.46,8.68-.55,17.41-1.5,26.04-.69,6.28-1.78,12.7-3.96,18.58-5.59,15.11-20.21,20.7-34.8,13.86-9.1-4.26-16.45-10.91-23.57-17.78-8.65-8.34-17.2-16.79-25.51-25.47-8.76-9.15-19-14.22-31.9-14.06-9.66,.11-19.36-.16-28.99-.95-17-1.4-29.01-12.24-32.2-28.97-1.14-6.01-1.49-12.23-1.6-18.36-.19-10.09-.14-20.21,.27-30.29,.4-9.95,3.07-19.24,9.79-27.01,7.98-9.22,18.65-11.66,30.12-11.99,6.7-.2,13.4-.11,20.1-.22,2.21-.03,4.41-.27,6.62-.41l1.05-1.28c-1.12-.61-2.45-1.01-3.31-1.87C47.02,66.33,25.88,45.2,4.77,24.05-.96,18.32-1.56,10.84,3.13,5.12,7.98-.79,16.23-1.71,22.22,3.03c1.08,.85,2.04,1.86,3.02,2.84C114.81,95.41,204.37,184.97,293.97,274.49c3.97,3.97,6.67,8.25,5.37,14.12-2.32,10.47-14.29,14.47-22.42,7.49-1.05-.9-1.99-1.92-2.97-2.9-27.75-27.75-55.5-55.49-83.23-83.26-.88-.88-1.51-2.02-2.26-3.04l-.87,.69Z"/><path class="d" d="M187.41,98.69c0,8.29,.01,16.57-.01,24.86,0,1.48,.11,3.05-.33,4.42-.57,1.79-1.32,4.44-2.59,4.85-1.4,.45-3.89-.79-5.21-2.03-6.94-6.57-13.68-13.36-20.45-20.11-13.84-13.81-27.66-27.64-41.48-41.47-1.05-1.05-2.09-2.12-3.05-3.25-1.44-1.68-1.6-3.57-.04-5.17,9.59-9.8,19.04-19.85,31.34-26.33,17.57-9.26,34.49-1,38.49,19.23,2,10.14,2.29,20.63,3.08,30.98,.36,4.65,.06,9.34,.06,14.02h.19Z"/><path class="d" d="M299.76,155.35c-.27,20.1-5.53,37.32-15.71,53.02-4.34,6.7-12.47,8.55-18.92,4.49-6.41-4.04-8.32-12.19-4.15-18.99,5.72-9.35,9.72-19.24,10.91-30.23,1.94-17.91-3.2-33.77-13.67-48.08-2.62-3.58-5.7-6.86-8.73-10.12-5.76-6.21-5.88-14.39-.16-19.91,5.62-5.42,13.78-5.18,19.65,.72,16.36,16.44,26.92,35.86,30.01,59.03,.5,3.78,.59,7.62,.77,10.07Z"/><path class="d" d="M245.26,159.99c.28,5.64-2.68,11.05-9.16,13.35-8.5,3.02-17.52-2.74-18.06-11.95-.46-7.94-1.56-15.62-5.62-22.59-1.54-2.65-3.34-5.16-5.13-7.65-4.68-6.53-3.78-14.66,2.21-19.3,6.16-4.77,14.38-3.7,19.49,2.7,9.87,12.38,15.49,26.42,16.26,45.44Z"/></g></g></g></svg>