<?xml version="1.0" encoding="UTF-8"?><svg xmlns="http://www.w3.org/2000/svg" viewBox="0 0 684.38 422.32"><defs><style>.d{fill:#e6e6e6;}</style></defs><g id="a"/><g id="b"><g id="c"><path class="d" d="M66.38,383.77c4.65-5.66,14.51-3.32,16.37-11.74,1.46-6.6-1.06-13.13-1.08-19.73-.13-44.28-.1-88.56-.39-132.84-.4-61.52-1.04-123.03-1.57-184.55-.03-3.45-.1-6.9,.03-10.35,.62-16.38,7.09-22.72,23.64-22.74,70.8-.11,141.6,.59,212.39-.36C406.42,.26,497.06,.74,587.7,.07c5.47-.04,10.95-.2,16.4,.2,9.02,.66,14.29,5.37,15.89,14.25,.7,3.92,.67,8.01,.68,12.02,.1,60.96-.55,121.92,.45,182.86,.74,45.13,.53,90.26,.87,135.39,.04,5.74-.35,11.48-.66,17.21-.4,7.61-.31,15.01,8.53,20.61-7.47,1.61-10.29,5.17-8.69,11.75,1.67,6.9,7.31,5.93,11.76,5.92,14.65-.03,29.34,1.4,43.95-.73,3.3-.48,6.6-.75,7.28,3.7,.55,3.59,.27,7.01-3.84,8.57-1.34,.51-2.72,1.01-4.13,1.22-21.43,3.09-42.15,11.58-64.57,7.34-7.23-1.37-14.92-.26-22.41-.25-148.5,.09-297-.13-445.5,.54-28.14,.13-56.34,.67-84.51,1.62-17.73,.6-35.69-4.95-53.51-7.97-4.92-.83-6.16-4.61-5.55-9.17,.65-4.92,4.41-4.56,7.86-4.57,21.58-.03,43.17,.09,64.75-.09,4.37-.04,10.2,2,10.09-6.53-.1-7.7-3.8-9.33-10.3-8.7-1.9,.18-4.03,.69-6.16-1.47Zm284.53-40.48c0-.38,0-.76,0-1.14,14.95,0,29.91,.02,44.86,0,66.19-.1,132.38-.31,198.57-.19,7.74,.01,10.56-2.23,10.54-10.28-.25-98.9-.3-197.81-.1-296.71,.02-8.24-3.04-10.24-10.64-10.02-24.44,.71-48.89,1.06-73.34,1.19-137.54,.76-275.09,1.47-412.63,1.95-8.2,.03-10.95,2.34-10.83,10.74,.5,37.65,.71,75.3,1.23,112.96,.84,60.08,.57,120.18,.77,180.27q.04,11.21,11.58,11.24c80,0,160,0,240.01,0Z"/></g></g></svg>