<?xml version="1.0" encoding="UTF-8"?><svg xmlns="http://www.w3.org/2000/svg" viewBox="0 0 223.36 291.38"><g id="a"/><g id="b"><g id="c"><g><path d="M0,145.4c0-38.42,0-76.84,0-115.26C.01,12.67,12.53,.1,29.92,.09c9.61,0,19.21-.04,28.82,0,15.63,.08,28.63,12.96,28.64,28.56,.04,78.06,.04,156.11,0,234.17,0,15.58-13.03,28.45-28.68,28.53-9.81,.05-19.62,.03-29.43,0C12.86,291.32,.03,278.55,.01,262.18c-.03-38.93,0-77.85,0-116.78Z"/><path d="M135.96,145.57c0-38.42,.25-76.84-.11-115.26-.16-16.84,13.6-30.93,30.47-30.29,9.39,.36,18.81,.03,28.21,.07,15.84,.07,28.81,12.91,28.81,28.7,.03,77.95,.03,155.91,0,233.86,0,15.79-12.97,28.63-28.81,28.7-9.61,.04-19.21,.02-28.82,0-17.04-.02-29.73-12.64-29.74-29.62-.02-38.72,0-77.45,0-116.17Z"/></g></g></g></svg>