<?xml version="1.0" encoding="UTF-8"?><svg xmlns="http://www.w3.org/2000/svg" viewBox="0 0 233.21 291.56"><g id="a"/><g id="b"><g id="c"><path d="M54.74,0c11.98,.09,22.54,4.11,32.13,11.06,27.98,20.28,55.97,40.53,83.95,60.8,13.34,9.66,26.81,19.14,39.96,29.06,29.77,22.47,30.04,67.41,.12,89.7-31.75,23.67-64.06,46.59-96.12,69.84-9.24,6.7-18.58,13.28-27.73,20.1-33.78,25.18-79.05,4.44-86.2-34.71-.51-2.77-.78-5.62-.78-8.43-.04-61.08-.1-122.16,0-183.24C.1,28,20.72,4.55,46.62,.82c2.69-.39,5.41-.55,8.12-.82Z"/></g></g></svg>