<?xml version="1.0" encoding="UTF-8"?><svg xmlns="http://www.w3.org/2000/svg" viewBox="0 0 347.01 266.14"><g id="a"/><g id="b"><g id="c"><path d="M243.06,232.14c11.63,6.6,22.81,12.94,33.98,19.27,5.96,3.38,11.87,6.85,17.89,10.13,21.72,11.81,47.06-.16,51.71-24.41,.38-1.99,.35-4.07,.35-6.11,.02-65.29,.02-130.59,0-195.88,0-26.86-27.78-43.57-51.44-30.73-16.16,8.77-32.04,18.08-48.05,27.15-1.34,.76-2.71,1.48-4.07,2.22-.82-3.65-1.27-7.21-2.41-10.54-6.92-20.11-30.52-29.25-49.44-18.89-18.03,9.87-35.81,20.21-53.69,30.36C98.26,57.18,58.65,79.69,18.99,102.13c-9.63,5.45-16.11,13.15-18.28,24.19-2.88,14.66,3.19,28.76,16.17,36.42,12.84,7.58,25.88,14.81,38.84,22.17,44.65,25.34,89.29,50.69,133.96,75.99,16.42,9.3,34.78,5.99,46.05-8.19,4.64-5.84,6.91-12.57,7.32-20.57Z"/></g></g></svg>