<?xml version="1.0" encoding="UTF-8"?><svg xmlns="http://www.w3.org/2000/svg" viewBox="0 0 296.38 238.6"><g id="a"/><g id="b"><g id="c"><g><path d="M183.39,119.51c0,24.98,.32,49.97-.18,74.94-.17,8.5-1.67,17.14-3.87,25.37-2.72,10.17-9.65,16.85-20.5,18.49-7.1,1.07-13.75-1-19.25-5.11-8.4-6.28-16.43-13.1-24.17-20.18-7.37-6.73-14.28-13.98-21.2-21.2-8.45-8.81-18.44-13.57-30.84-13.49-9.87,.06-19.78-.21-29.62-.99-16.86-1.34-28.87-12.32-32.1-29.1-1-5.18-1.44-10.53-1.52-15.81-.16-11.05-.28-22.13,.27-33.16,.64-12.9,4.9-24.33,16.04-32.14,7.3-5.11,15.72-6.13,24.28-6.43,8.92-.31,17.86-.36,26.78-.65,8.02-.26,15.32-2.8,21.18-8.34,8.95-8.47,17.42-17.47,26.5-25.8,7.81-7.16,15.8-14.24,24.42-20.37,8.39-5.97,17.94-7.67,27.64-2.38,8.01,4.37,12.17,11.74,13.44,20.26,1.65,11.1,2.78,22.35,3.03,33.56,.47,20.83,.13,41.68,.13,62.51h-.44Z"/><path d="M296.38,114.6c-.54,34.23-10.98,59.79-30.68,81.64-5.37,5.95-13.62,6.43-19.4,1.41-5.77-5.01-6.4-13.31-1.04-19.38,10.74-12.18,18.6-25.83,21.79-41.85,5.55-27.85-1.82-52.31-19.98-73.75-3.26-3.86-6.14-7.74-5.31-13.07,.87-5.6,3.98-9.58,9.49-11.28,5.48-1.69,10.34-.36,14.21,3.87,12.91,14.1,22.36,30.24,26.92,48.85,2.26,9.22,3.21,18.76,3.99,23.58Z"/><path d="M241.75,117.28c-.12,20.08-5.33,36.39-16.15,50.77-5.61,7.45-15.99,7.69-21.72,.7-4.09-4.99-4.2-11.29-.07-17.06,6.08-8.49,9.68-17.82,10.4-28.27,.91-13.21-2.37-25.23-10.13-35.98-2.52-3.5-3.95-7.22-2.95-11.62,1.25-5.5,4.6-9.16,9.96-10.49,5.61-1.4,10.59,.2,14.2,4.88,8.33,10.81,13.43,23.04,15.48,36.5,.64,4.19,.79,8.45,.98,10.58Z"/></g></g></g></svg>