<?xml version="1.0" encoding="UTF-8"?><svg xmlns="http://www.w3.org/2000/svg" viewBox="0 0 323.4 654.9"><g id="a"/><g id="b"><g id="c"><g><path d="M2.42,443.71c0-42.58-.39-85.17,.19-127.74,.23-16.74-2.34-33.23-2.47-49.89-.18-23.17,1.39-46.33,.09-69.53-.49-8.76-.32-17.52,1.75-26.3,2.27-9.66-2.56-19.52-1.56-28.98,3.3-31.39,.41-62.96,3.52-94.31C6.52,20.99,24.06,3.6,50.04,1.45,60.05,.62,70.13,.16,80.18,.13,137.13-.01,194.09-.06,251.05,.1c9.09,.03,18.27,.65,27.25,2.05,23.91,3.73,38.65,19.7,41.58,44.73,.99,8.43,1.46,16.97,1.47,25.47,.06,43.53-.25,87.05-.08,130.58,.03,8.77,2.34,17.43,2.12,26.33-3,120.04-1.66,240.11-2.05,360.17-.02,7.54-.64,15.17-1.98,22.58-5.13,28.49-24.88,42.68-59.88,42.79-61.05,.19-122.1,.05-183.15,.07-9.12,0-18.2-.19-27.3-1.3-26-3.18-42.29-19.46-45.43-45.28-1.34-11.02-1.19-22.03-1.2-33.05-.07-43.84-.03-87.68-.03-131.53h.04Zm14.94-118.51c.99,13.84-1.1,27.7-.78,41.56,.64,28.34,.97,56.71,.49,85.06-.86,50.76-1.51,101.52,1,152.25,.67,13.55,6.59,24.36,19.01,30.53,7.11,3.53,14.97,4.56,22.95,4.56,50.97,.03,101.95,.16,152.92,.18,18.25,0,36.51,.17,54.75-.4,24.29-.76,37.03-13.46,38.49-37.55,.57-9.44,1.34-18.88,1.35-28.33,.08-165.58,.09-331.16-.02-496.74,0-10.7-.74-21.43-1.79-32.09-1.58-15.92-13.38-28.17-29.13-30.3-8.39-1.14-16.91-1.88-25.37-1.91-46.25-.19-92.51-.27-138.76-.05-20.11,.1-40.24-1.11-60.33,1.37-21.26,2.62-33.1,14.39-34.13,35.69-.83,17-1.51,34.03-1.49,51.04,.07,46.98,.6,93.96,.83,140.94,.13,28.06,.02,56.11,.02,84.17Z"/><path d="M162.04,49.85c-10.38,0-20.76,.21-31.13-.06-9.18-.24-15.52-6.54-15.28-14.51,.22-7.38,6.6-13.19,15.46-13.29,21.38-.23,42.76-.3,64.14-.12,8.49,.07,14.76,6.46,14.74,14.06-.02,7.59-6.17,13.62-14.92,13.85-11,.3-22.01,.07-33.01,.07Z"/></g></g></g></svg>